<svg width="32" height="32" viewBox="0 0 32 32" fill="none" xmlns="http://www.w3.org/2000/svg">
<g clip-path="url(#clip0_119_50)">
<rect width="32" height="32" fill="#FFCC00"/>
<rect width="32" height="32" fill="white"/>
<path fill-rule="evenodd" clip-rule="evenodd" d="M4 6.66675H24C25.4728 6.66675 26.6667 7.86066 26.6667 9.33341V12V12.0001V20V22.6667C26.6667 24.1394 25.4728 25.3333 24 25.3333H10.6667C9.1939 25.3333 8 24.1394 8 22.6667V20V13.3333H13.3333V18.6667C13.3333 19.403 13.9303 20 14.6667 20H20C20.7364 20 21.3333 19.403 21.3333 18.6667V13.3333C21.3333 12.597 20.7364 12 20 12H14.6667C14.6617 12 14.6567 12 14.6518 12.0001H6.66666C5.1939 12.0001 4 10.8062 4 9.33341V6.66675Z" fill="#FFCC00"/>
</g>
<defs>
<clipPath id="clip0_119_50">
<rect width="32" height="32" fill="white"/>
</clipPath>
</defs>
</svg>
