<svg width="64" height="90" viewBox="0 0 64 90" fill="none" xmlns="http://www.w3.org/2000/svg">
<path d="M16.5156 72.1719V82.625H14.2812V79.375H11.1328C10.4375 80.0703 9.46875 80.4922 8.39062 80.4844C6.21094 80.4922 4.53125 78.8906 4.54688 76.75C4.53125 74.5703 6.21094 72.9844 8.39062 72.9844C9.46875 72.9844 10.4453 73.4062 11.1406 74.1094H14.2812V72.1719H16.5156ZM6.67188 76.75C6.67188 77.875 7.38281 78.4922 8.39062 78.5C9.32812 78.4922 10.0625 77.875 10.0625 76.75C10.0625 75.6094 9.32812 74.9766 8.39062 74.9844C7.38281 74.9766 6.67188 75.6094 6.67188 76.75ZM6.90625 86.2656V81.5781H9.15625V84.4688H16.8438V86.2656H6.90625ZM12.1094 75.8906C12.1719 76.1641 12.2031 76.4531 12.2031 76.75C12.2031 77.0391 12.1719 77.3125 12.1094 77.5781H14.2812V75.8906H12.1094ZM29.8125 72.7812V73.9531C29.8203 75.0625 29.8203 76.2734 29.4922 77.875H31.3125V79.6719H18.2031V77.875H27.2188C27.5 76.5625 27.5547 75.5156 27.5625 74.5625H19.7812V72.7812H29.8125ZM19.7344 86.3438V81.0625H29.7188V86.3438H19.7344ZM21.9375 84.5469H27.4844V82.8125H21.9375V84.5469ZM36.0469 72.5312C37.1719 72.5391 38.1641 72.9141 38.8516 73.5469H41.9375V72.1562H44.1719V79.2969H41.9375V78.1719H38.8516C38.1641 78.8125 37.1719 79.1875 36.0469 79.1875C33.8516 79.1875 32.1875 77.8125 32.2031 75.8438C32.1875 73.9062 33.8516 72.5391 36.0469 72.5312ZM34.3281 75.8438C34.3281 76.8438 35.0391 77.3828 36.0469 77.375C37.0234 77.3828 37.7188 76.8438 37.7188 75.8438C37.7188 74.8828 37.0234 74.3516 36.0469 74.3438C35.0391 74.3516 34.3281 74.8828 34.3281 75.8438ZM34.5625 86.3438V82.2344H41.9375V81.5781H34.5625V79.8594H44.1719V83.875H36.8281V84.5938H44.5469V86.3438H34.5625ZM39.8047 75.2656C39.8438 75.4531 39.8594 75.6484 39.8594 75.8438C39.8594 76.0391 39.8438 76.2344 39.8047 76.4219H41.9375V75.2656H39.8047ZM51.6406 79.25V81.7969C52.7734 81.7266 53.9141 81.625 54.9844 81.4688L55.1562 83.0938C52.0156 83.6953 48.6562 83.7344 46.1719 83.7656L45.9219 81.9219C46.9375 81.9219 48.125 81.9141 49.3906 81.8828V79.25H51.6406ZM45.9375 78.2031C48.4062 77.4844 49.3594 75.7891 49.3594 74.0625V73.1562H51.6719V74.0469C51.6719 75.6094 52.5859 77.25 55.0312 77.9062L53.9531 79.6875C52.3359 79.2344 51.2188 78.2969 50.5547 77.1172C49.9062 78.4375 48.75 79.4609 47.0156 79.9531L45.9375 78.2031ZM55.75 86.5312V72.1562H57.9844V86.5312H55.75Z" fill="#7E7E7E"/>
<rect width="64" height="64" fill="white"/>
<path fill-rule="evenodd" clip-rule="evenodd" d="M8 13.3333H48C50.9455 13.3333 53.3333 15.7212 53.3333 18.6667V24V40V45.3333C53.3333 48.2789 50.9455 50.6667 48 50.6667H21.3333C18.3878 50.6667 16 48.2789 16 45.3333V40V26.6667H26.6667V37.3333C26.6667 38.8061 27.8606 40 29.3333 40H40C41.4728 40 42.6667 38.8061 42.6667 37.3333V26.6667C42.6667 25.1939 41.4728 24 40 24H29.3333L13.3333 24C10.3878 24 8 21.6122 8 18.6667V13.3333Z" fill="#FFCC00"/>
</svg>
