<svg width="16" height="16" viewBox="0 0 16 16" fill="none" xmlns="http://www.w3.org/2000/svg">
<path d="M8.00004 2C4.33337 2 1.33337 4.38667 1.33337 7.33333C1.36671 8.76667 2.04004 10.1133 3.16671 11C3.16671 11.4 2.88671 12.4467 1.33337 14C2.91337 13.9267 4.42671 13.3333 5.64671 12.3333C6.40671 12.5533 7.20671 12.6667 8.00004 12.6667C11.6667 12.6667 14.6667 10.28 14.6667 7.33333C14.6667 4.38667 11.6667 2 8.00004 2ZM8.00004 11.3333C5.05337 11.3333 2.66671 9.54 2.66671 7.33333C2.66671 5.12667 5.05337 3.33333 8.00004 3.33333C10.9467 3.33333 13.3334 5.12667 13.3334 7.33333C13.3334 9.54 10.9467 11.3333 8.00004 11.3333ZM11.3334 8V6.66667H10V8H11.3334ZM8.66671 8V6.66667H7.33337V8H8.66671ZM6.00004 8V6.66667H4.66671V8H6.00004Z" fill="#989898"/>
</svg>
