<svg width="24" height="24" viewBox="0 0 24 24" fill="none" xmlns="http://www.w3.org/2000/svg">
<path fill-rule="evenodd" clip-rule="evenodd" d="M20.8 12C20.8 16.8601 16.8601 20.8 12 20.8C7.13989 20.8 3.2 16.8601 3.2 12C3.2 7.13989 7.13989 3.2 12 3.2C16.8601 3.2 20.8 7.13989 20.8 12ZM8.7 14.2H10.02C10.02 14.992 10.9242 15.6667 12 15.6667C13.0758 15.6667 13.98 14.992 13.98 14.2C13.98 13.3933 13.2936 13.1 11.8416 12.7113C10.4424 12.3227 8.7 11.8387 8.7 9.8C8.7 8.48733 9.6702 7.37267 11.01 6.99867V5.4H12.99V6.99867C14.3298 7.37267 15.3 8.48733 15.3 9.8H13.98C13.98 9.008 13.0758 8.33333 12 8.33333C10.9242 8.33333 10.02 9.008 10.02 9.8C10.02 10.6067 10.7064 10.9 12.1584 11.2887C13.5576 11.6773 15.3 12.1613 15.3 14.2C15.3 15.5127 14.3298 16.6273 12.99 17.0013V18.6H11.01V17.0013C9.6702 16.6273 8.7 15.5127 8.7 14.2Z" fill="#FFCC00"/>
<path fill-rule="evenodd" clip-rule="evenodd" d="M23 12C23 18.0751 18.0751 23 12 23C5.92487 23 1 18.0751 1 12C1 5.92487 5.92487 1 12 1C18.0751 1 23 5.92487 23 12ZM21.9 12C21.9 17.4676 17.4676 21.9 12 21.9C6.53238 21.9 2.1 17.4676 2.1 12C2.1 6.53238 6.53238 2.1 12 2.1C17.4676 2.1 21.9 6.53238 21.9 12Z" fill="#FFCC00"/>
</svg>
