<svg width="25" height="24" viewBox="0 0 25 24" fill="none" xmlns="http://www.w3.org/2000/svg">
<path d="M9.39325 1.92997C7.50325 1.91997 5.66325 3.73997 6.50325 5.99997H3.33325C2.80282 5.99997 2.29411 6.21069 1.91904 6.58576C1.54397 6.96083 1.33325 7.46954 1.33325 7.99997V9.99997C1.33325 10.2652 1.43861 10.5195 1.62615 10.7071C1.81368 10.8946 2.06804 11 2.33325 11H11.3333V7.99997H13.3333V11H22.3333C22.5985 11 22.8528 10.8946 23.0404 10.7071C23.2279 10.5195 23.3333 10.2652 23.3333 9.99997V7.99997C23.3333 7.46954 23.1225 6.96083 22.7475 6.58576C22.3724 6.21069 21.8637 5.99997 21.3333 5.99997H18.1633C19.3333 2.72997 14.9333 0.419973 12.9033 3.23997L12.3333 3.99997L11.7633 3.21997C11.1333 2.32997 10.2633 1.93997 9.39325 1.92997ZM9.33325 3.99997C10.2233 3.99997 10.6733 5.07997 10.0433 5.70997C9.41325 6.33997 8.33325 5.88997 8.33325 4.99997C8.33325 4.73476 8.43861 4.4804 8.62615 4.29287C8.81368 4.10533 9.06804 3.99997 9.33325 3.99997ZM15.3333 3.99997C16.2233 3.99997 16.6733 5.07997 16.0433 5.70997C15.4133 6.33997 14.3333 5.88997 14.3333 4.99997C14.3333 4.73476 14.4386 4.4804 14.6261 4.29287C14.8137 4.10533 15.068 3.99997 15.3333 3.99997ZM2.33325 12V20C2.33325 20.5304 2.54397 21.0391 2.91904 21.4142C3.29411 21.7893 3.80282 22 4.33325 22H20.3333C20.8637 22 21.3724 21.7893 21.7475 21.4142C22.1225 21.0391 22.3333 20.5304 22.3333 20V12H13.3333V20H11.3333V12H2.33325Z" fill="#FFCC00"/>
</svg>
