<svg width="25" height="24" viewBox="0 0 25 24" fill="none" xmlns="http://www.w3.org/2000/svg">
<path d="M12.7066 2.5L10.1966 5H15.1966L12.7066 2.5ZM4.66663 7V20H20.6666V7H4.66663ZM12.6666 0L17.6666 5H20.6666C21.1971 5 21.7058 5.21071 22.0808 5.58579C22.4559 5.96086 22.6666 6.46957 22.6666 7V20C22.6666 20.5304 22.4559 21.0391 22.0808 21.4142C21.7058 21.7893 21.1971 22 20.6666 22H4.66663C4.13619 22 3.62749 21.7893 3.25241 21.4142C2.87734 21.0391 2.66663 20.5304 2.66663 20V7C2.66663 6.46957 2.87734 5.96086 3.25241 5.58579C3.62749 5.21071 4.13619 5 4.66663 5H7.66663L12.6666 0ZM7.66663 18V14H12.6666V18H7.66663ZM14.6666 17V10H18.6666V17H14.6666ZM6.66663 12V9H11.6666V12H6.66663Z" fill="#FFCC00"/>
</svg>
