<svg width="1024" height="1024" viewBox="0 0 1024 1024" fill="none" xmlns="http://www.w3.org/2000/svg">
<rect width="1024" height="1024" fill="black"/>
<path fill-rule="evenodd" clip-rule="evenodd" d="M128 213.333H768C815.128 213.333 853.333 251.538 853.333 298.667V384V640V725.333C853.333 772.462 815.128 810.667 768 810.667H341.333C294.205 810.667 256 772.462 256 725.333V640V426.667H426.667V597.333C426.667 620.897 445.769 640 469.333 640H640C663.564 640 682.667 620.897 682.667 597.333V426.667C682.667 403.102 663.564 384 640 384H469.333L213.333 384C166.205 384 128 345.795 128 298.667V213.333Z" fill="#FFCC00"/>
</svg>
